# xmcd
#
# Track frame offsets: 
#        150
#        14642
#        36472
#        49760
#        67116
#        79847
#        100616
#        115959
#        131713
#        146631
#        163973
#
# Disc length: 2461 seconds
#
# Revision: 0
# Processed by: cddbd v1.5PL3 Copyright (c) Steve Scherf et al.
# Submitted via: ExactAudioCopy v0.95a5
#
DISCID=a3099b0b
DTITLE=Plan B - It's time for... Plan B
DYEAR=2004
DGENRE=
TTITLE0=Double L Blues
TTITLE1=Speed of the Sound of Loneliness
TTITLE2=You Don't Know How It Feels
TTITLE3=Street of Dreams
TTITLE4=Defying Gravity
TTITLE5=It's Gonna Strike Tonight
TTITLE6=I Was Falling
TTITLE7=Might As Well Be Texas
TTITLE8=It Sure Don't Hold No Candle to You
TTITLE9=Whatcha' Gonna Do
TTITLE10=Wayfaring Stranger
EXTD=
EXTT0=
EXTT1=
EXTT2=
EXTT3=
EXTT4=
EXTT5=
EXTT6=
EXTT7=
EXTT8=
EXTT9=
EXTT10=
PLAYORDER=
